<?xml version="1.0" encoding="UTF-8"?>
<svg id="Layer_1" data-name="Layer 1" xmlns="http://www.w3.org/2000/svg" width="374.173" height="415.664" xmlns:xlink="http://www.w3.org/1999/xlink" viewBox="0 0 374.173 415.664">
  <defs>
    <clipPath id="clippath">
      <rect x="4.252" y="43.937" width="368.504" height="368.504" fill="none" stroke-width="0"/>
    </clipPath>
    <clipPath id="clippath-1">
      <rect x="4.252" y="43.937" width="368.504" height="368.504" fill="none" stroke-width="0"/>
    </clipPath>
  </defs>
  <g id="SINAASAPPEL_OUTLINE" data-name="SINAASAPPEL OUTLINE">
    <path d="M90.065,160.685c-1.124-.787-2.231-1.752-3.437-2.413-.45-.246-.99-.372-1.495-.515-.747-.211-2.677-1.079-3.462-.754-.331.138-.749,1.02-.938,1.29-.523.745-1.044,1.491-1.567,2.237-.374.535-.869,1.087-1.169,1.663-.32.614-.266,1.237-.345,1.962-.149,1.359.392,2.41,1.297,3.315,2.01,2.006,4.505,2.282,6.894.372,1.005-.804,1.77-1.442,2.492-2.496.893-1.302.593-1.943.519-3.299M44.5,283.804c1.856,1.482,4.976,1.376,7.177,1.841,4.781,1.009,9.512,2.145,14.201,3.527,8.387,2.471,16.817,7.438,23.918,12.487,4.96,3.526,10.004,6.504,13.814,11.341,4.534,5.755,7.635,11.829,9.373,18.782,2.066,8.268-.966,15.13-5.82,21.939-3.402,4.773-6.295,10.725-11.422,13.842-3.705,2.253-6.854,3.169-11.139,3.824-5.105.781-9.613.118-14.677-.375-5.458-.532-10.734-.495-16.074-1.722-2.388-.549-4.803-.704-7.044-1.815-3.461-1.716-6.593-4.488-9.747-6.695-2.795-1.955-5.589-3.912-8.383-5.87-2.703-1.894-6.281-3.642-8.538-6.064-2.375-2.55-3.572-7.022-3.916-10.381-.459-4.471-.871-9.043-.723-13.547.14-4.257.669-8.479,1.204-12.628.328-2.544,2.553-4.789,4.107-7.009" fill="none" stroke="#e8f3e8" stroke-width="1"/>
    <path d="M29.172,292.104c-1.082-1.908,1.887-2.262,2.932-2.884.694-.412,1.412-1.608,2.239-2.122,1.13-.702,2.278-1.063,3.513-1.493,1.385-.483,3.306-.659,4.529-1.511,1.74-1.213,2.291-4.899,1.648-6.796-.646-1.906-4.711-4.567-6.812-5.339-2.072-.761-6.471-.451-8.193.772-.26,2.766,2.977,3.95,4.424,5.909,1.639,2.219.507,4.159-2.345,4.246-1.214.037-2.125-.842-3.235-1.012-1.479-.227-3.066.284-4.582.096-1.773-.22-2.999-.995-4.852-1.292-2.123-.339-5.003-2.322-7.066-1.075.975,3.007-1.681,5.382.584,7.395,1.761,1.566,4.438,1.446,6.639,1.438,1.405-.005,6.007-1.274,7.177-.383-2.557,2.084-5.273,3.247-7.451,5.864-1.688,2.027-3.455,3.363-5.403,5.007-1.375,1.161-1.792.816-.533,2.223,1.328,1.484,6.338,3.221,8.136,3.064,2.023-.176,3.295-3.224,4.443-4.864,1.596-2.279,3.191-4.558,4.787-6.837" fill="#e8f3e8" stroke-width="0"/>
  </g>
  <g id="GROTE_STENGEL" data-name="GROTE STENGEL">
    <g clip-path="url(#clippath)">
      <path d="M42.358,153.921c2.626.964,2.75,7.711,3.318,10.058.595,2.456.178,4.656.427,7.134.651,6.468,2.37,12.993,5.48,18.736,1.084,2.002,1.601,4.206,1.927,6.488.566,3.966,2.152,7.386,3.104,11.308,1.479,6.097,4.016,11.724,6.125,17.599,3.146,8.761,7.056,17.211,9.912,26.09,7.824,24.323,18.675,46.992,31.226,69.244,3.703,6.565,7.622,13.657,12.488,19.441,5.192,6.169,9.07,12.621,12.909,19.706,3.656,6.745,4.943,14.367,8.85,21.037,1.413,2.412,2.979,4.663,4.066,7.253.968,2.307,1.68,4.899,3.164,6.956.845,1.171,1.792,1.732,3.092,2.733,5.206,4.011,8.289,10.363,13.518,14.373" fill="#e8f3e8" stroke-width="0"/>
      <path d="M4.252,393.175c12.771.902,25.583.384,38.369.17,15.525-.26,30.589-.157,46.051.861,3.525.232,5.28.517,8.342-.557,1.448-.507,2.854-1.197,4.333-1.693,3.159-1.057,6.253-2.141,9.406-3.187,4.971-1.65,9.778-4.775,14.533-6.94,5.339-2.43,10.854-4.373,16.211-6.748" fill="#e8f3e8" stroke-width="0"/>
      <path d="M196.5,213.752c-13.992,19.982-27.923,40.007-41.985,59.94-5.075,7.194-10.469,14.208-14.445,22.101-2.308,4.581-4.316,9.177-6.838,13.648-1.711,3.034-3.697,5.905-4.843,8.976-.732,1.96-1.563,4.002-2.287,6.002-.855,2.36-3.324,6.896-2.537,9.556" fill="#e8f3e8" stroke-width="0"/>
      <path d="M237.819,332.656c-9.824,14.03-19.657,28.053-29.473,42.088-6.105,8.734-12.207,17.469-18.306,26.207-1.063,1.477-5.162,8.236-7.883,9.711-.561-.617-1.237-1.142-1.966-1.52-2.209,2.357-10.945,2.537-13.479,3.062-4.264.882-9.266,1.579-13.397,3.125.142.112.285.223.428.335" fill="#e8f3e8" stroke-width="0"/>
    </g>
  </g>
  <g id="FRUTSELS">
    <path d="M30.472,249.356c.226-1.732,2.926-3.604,3.87-5.129,1.8-2.909,4.039-6.491,5.367-9.631.983-2.325.174-3.867-.609-6.076-1.148-3.238-.832-5.218.781-8.157.724-1.318,1.824-5.888,3.523-6.112.083,1.524,1.399,2.21,1.337,3.827.314.063.628.129.942.195.393,2.092-.748,4.382,1.359,5.553-.387.981-1.343,1.2-2.312,1.262-.29,1.996-1.745,2.25-3.485,2.157" fill="#e8f3e8" stroke-width="0"/>
    <path d="M42.661,230.93c-.232-1.155,1.053-3.205,1.971-3.905,1.35-1.031,2.912-1.51,3.981-2.843,1.034-1.289,2.058-2.513,3.396-3.449.351-.245.818-.554,1.14-.837.48-.42.675-1.114,1.196-1.474.387-.268.796-.285,1.14-.524.326-.227.53-.555.845-.795.709-.542,1.46-1.142,2.197-1.701.392-.298.757-.525,1.148-.857.145-.123.457-.492.618-.566.574-.266,1.364-.23,1.993-.403.89-.245,2.297-.371,3.065-.851.779-.487.971-1.1,2.043-1.438.942-.297,1.802-.07,2.749-.185,1.708-.205,3.322-1.157,5.069-.816.016.078.032.157.048.235" fill="#e8f3e8" stroke-width="0"/>
    <path d="M203.21,186.787c-.421.6-.953,1.21-1.299,1.857-.367.686-.263,1.008-.405,1.7-.13.641-.584.959-.863,1.566-.43.935-.806,1.671-1.43,2.562-.935,1.336-1.826,3.091-3.006,4.194-.706.661-1.712,1.052-2.509,1.582-.888.591-1.714,1.77-2.732,2.049.119-1.17-.783-2.357-.312-3.531.406-1.012,1.495-2.113,2.112-2.994.421-.602.808-1.353,1.318-1.879.597-.616,1.185-.87,1.815-1.497.695-.693,1.235-1.438,1.852-2.258.827-1.102,1.919-2.23,3.099-2.859.444.243,1.037.194,1.083.344" fill="#e8f3e8" stroke-width="0"/>
    <path d="M210.22,206.922c.21.103,1.242.282,1.469.278.335-.007.546-.321.94-.271.326.042.448.373.727.468.868.294,1.866.838,2.662,1.239,2.075,1.046,4.758,3.133,5.065,5.468-.86-.463-1.81-.771-2.833-.868-1.227-.115-1.782-.555-2.88-1.324-1.221-.855-5.552-2.853-4.767-4.655-.05-.058-.1-.115-.151-.173" fill="#e8f3e8" stroke-width="0"/>
    <path d="M207.734,215.908c-.422.706-2.294.602-3.014.735-1.052.196-2.58.199-3.399.986-.339.325-.476.868-.806,1.202-.318.322-.952.454-1.288.8-.803.827-1.125,1.701-.558,2.698.619-.724,1.201-1.25,2.22-1.254,1.115-.004,1.876-.035,3.008-.318,1.248-.312,2.516-1.199,3.546-1.964.514-.381.558-.294.731-.922.16-.58-.051-1.201.353-1.706-.056-.054-.111-.109-.166-.164" fill="#e8f3e8" stroke-width="0"/>
    <path d="M209.454,206.039c-1.05.265-2.181.023-3.231.057-1.455.047-2.948.333-4.367.514-2.343.299-3.479,2.625-4.91,4.408.484-.309,1.125-.362,1.686-.384.267-.011.367.252.663.179.339-.084.442-.427.772-.552.24.109.49.153.752.132.238-.092.458-.448.707-.58.44-.234,1.033-.359,1.464-.062.323-.364.722-.317,1.115-.52.554-.287,1.104-.656,1.665-.909,1.992-.896,4.148-2.673,5.703-4.236-.108.009-.216.017-.324.026" fill="#e8f3e8" stroke-width="0"/>
    <path d="M210.544,216.838c.781-.205,2.098.77,2.704,1.201.855.607,1.702,1.202,2.345,1.969,1.166,1.391,1.382,3.31,1.469,5.149-1.484-.737-3.993-2.314-4.897-3.725-.466-.727-.664-1.443-1.045-2.208-.343-.688-1.049-1.663-.808-2.549" fill="#e8f3e8" stroke-width="0"/>
    <path d="M205.364,226.707c1.475.803,2.45,2.383,3.295,3.768,1.119,1.833,2.477,3.042.659,4.856-.53-.144-.414-.566-.735-.852-.279-.248-.681-.374-.942-.644-.471-.485-.317-.289-.508-.867-.164-.493-.141-.997-.261-1.484-.216-.883-.473-1.547-.829-2.301-.297-.631-.588-1.624-.447-2.314" fill="#e8f3e8" stroke-width="0"/>
    <path d="M204.273,226.288c-.519.488.015,1.121-.425,1.58-.112.119-.912.267-1.079.296-1.083.194-2.336-.09-3.379.242-.484.153-.38.46-.99.362-.335-.054-.813-.604-1.143-.739-.584-.238-1.886-.651-2.27.142.642-.867.864-1.485,1.921-1.754.921-.235,1.799-.533,2.683-.65,1.373-.184,3.181,1.816,4.148-.199" fill="#e8f3e8" stroke-width="0"/>
    <path d="M198.581,244.796c.825-1.179,1.686-2.34,2.478-3.542.811-1.229.837-2.282,1.228-3.646.099-.255.246-.479.441-.67.036-.208-.028-.382-.195-.523.018-.494.032-.82-.015-1.32-.091-.987-1.125-2.194-.572-3.119-.053-.054-.106-.107-.159-.161" fill="#e8f3e8" stroke-width="0"/>
    <path d="M310.553,73.769c-.097,1.04.302,2.115.426,3.134.171,1.413.119,2.885.157,4.274.063,2.296-1.988,3.6-3.478,5.142.223-.496.179-1.122.117-1.667-.03-.259-.296-.333-.27-.626.03-.336.342-.466.412-.797-.14-.223-.219-.462-.238-.717.053-.238.36-.483.449-.735.158-.447.189-1.032-.158-1.423.3-.345.195-.728.331-1.126.191-.562.462-1.127.62-1.693.559-2.008,1.935-4.252,3.196-5.894.008.105.016.21.023.315" fill="#e8f3e8" stroke-width="0"/>
    <path d="M300.084,73.66c.079-.774-1.047-1.964-1.549-2.514-.706-.775-1.4-1.543-2.227-2.098-1.5-1.008-3.364-1.049-5.133-.972.924,1.373,2.802,3.664,4.283,4.417.763.388,1.476.516,2.263.819.707.272,1.743.871,2.552.56" fill="#e8f3e8" stroke-width="0"/>
    <path d="M291.434,79.541c-.986-1.359-2.639-2.164-4.087-2.862-1.915-.923-3.271-2.133-4.733-.212.217.501.602.351.923.637.278.248.458.626.754.856.534.413.323.281.903.416.495.115.973.049,1.455.122.875.133,1.548.323,2.32.601.646.233,1.638.428,2.275.23" fill="#e8f3e8" stroke-width="0"/>
    <path d="M291.995,80.561c-.389.545-1.072.084-1.445.549-.096.12-.119.907-.122,1.071-.024,1.067.433,2.255.271,3.294-.075.482-.383.408-.199.99.101.32.698.735.875,1.043.314.545.901,1.77.202,2.211.732-.698,1.289-.967,1.389-2.014.087-.913.241-1.79.222-2.656-.029-1.346-2.206-2.922-.427-4.034" fill="#e8f3e8" stroke-width="0"/>
  </g>
  <g id="LOSSE_BAMBOOBLAADJES" data-name="LOSSE BAMBOOBLAADJES">
    <g clip-path="url(#clippath-1)">
      <path d="M327.402,84.331v44.678c0,8.597.574,17.199-1.223,25.645-2.492,11.71-1.563,23.675-1.626,35.585-.05,9.537,1.976,18.016,3.557,27.321" fill="#e8f3e8" stroke-width="0"/>
      <path d="M282.047,194.173v-87.494c0-5.785-.034-10.94,1.969-16.543,1.712-4.791,2.41-9.576,3.845-14.573,3.192-11.11,6.385-22.357,9.926-33.355.857-2.662,1.647-3.409,2.685-5.357" fill="#e8f3e8" stroke-width="0"/>
      <path d="M177.165,114.803c27.364.715,57.43-4.105,76.536-25.512" fill="#e8f3e8" stroke-width="0"/>
      <path d="M14.882,413.858c-1.192-9.646,2.554-20.277,5.905-29,5.406-14.075,13.184-27.158,18.894-41.124,2.874-7.029,5.3-14.075,9.184-20.632,1.844-3.113,3.787-6.186,5.696-9.25,7.541-12.1,13.547-25.576,23.393-36.057" fill="#e8f3e8" stroke-width="0"/>
      <path d="M226.063,408.189c3.261-2.415-17.359-35.875-16.323-34.1-6.914-11.311-13.855-22.605-20.823-33.883-1.082-1.806-5.233-10.628-8.208-12.804" fill="#e8f3e8" stroke-width="0"/>
      <path d="M313.228,401.102c7.375-11.827,15.549-23.309,24.089-34.308,8.488-10.933,17.843-23.264,29.279-31.541,1.563-1.131,5.594-4.727,7.577-5.017" fill="#e8f3e8" stroke-width="0"/>
      <path d="M120.472,163.701c.739-31.373-.528-62.688-3.076-93.966-1.861-22.839-6.478-46.643-5.427-69.735" fill="#e8f3e8" stroke-width="0"/>
      <path d="M0,85.039c4.319-2.201,8.366-4.844,12.14-7.929,12.721-8.698,25.614-16.51,39.336-23.509,3.009-1.535,8.152-3.134,11.15-4.791.883-.488,1.418.018,1.862-1.33" fill="#e8f3e8" stroke-width="0"/>
    </g>
  </g>
  <g id="GROTE_BLADEREN" data-name="GROTE BLADEREN">
    <path d="M78.916,199.563c5.793-7.472,5.892-21.436,17.755-21.581,7.184-.087,13.025,7.468,15.73,13.59,1.562,3.534,3.259,6.609,4.767,10.218,1.112,2.66,1.206,5.404,1.996,8.175.589,2.063,1.956,4.363,1.693,6.627-.854,7.338-8.888,9.69-14.689,11.823-3.754,1.38-7.077,3.082-11.28,3.086-4.186.003-7.79-2.036-11.534-4.078-3.648-1.989-7.139-3.969-10.554-6.448-4.15-3.012-6.642-8.149-8.685-12.806-1.996-4.551-1.191-13.07,1.554-17.125,4.716-6.967,12.572-4.301,18.57-8.677" fill="#e6c086" stroke-width="0"/>
    <path d="M97.727,354.814c-1.587.737-3.216.988-4.886.884-4.756-.295-9.857-.09-14.633-.711-4.69-.61-9.413-1.313-13.641-3.285-2.543-1.186-5.166-2.413-7.635-3.806-3.044-1.716-5.876-4.134-8.74-6.139-2.671-1.87-5.741-3.545-7.802-6.091-.668-.826-2.003-2.043-2.456-2.973-.895-1.835-.044-2.58.223-4.211.26-1.591-.441-2.86-.345-4.335.142-2.187,1.44-5.261,2.319-7.325,1.279-3.001,3.296-5.553,5.16-8.202,3.364-4.78,5.541-10.13,8.732-15.006.541-.826,2.116-3.915,3.227-4.402.57-.231,1.118-.159,1.646.216,2.804.342,5.977,1.27,8.728,1.913,4.48,1.047,9.455,2.363,13.595,4.445,3.462,1.742,6.548,4.529,9.761,6.684,2.874,1.927,4.117,4.226,6.267,6.856,1.367,1.671,2.713,3.019,3.462,5.131,2.42,6.828,1.805,16.236,1.361,23.305-.217,3.449-2.687,7.088-4.599,10.034-2.682,4.133-5.683,8.088-8.51,12.125" fill="#e6c086" stroke-width="0"/>
    <path d="M138.898,111.969c-1.127-.019-3.198.443-4.182.082-2.227-.815-1.525-1.861-1.483-4.163.097-5.247-.513-10.56.693-15.71.435-1.862.851-3.408,1.568-5.154.905-1.075,1.507-2.299,1.808-3.672.078-1.843.577-3.568,1.498-5.175,2.896-4.854,9.507-8.828,14.172-11.697,6.012-3.697,12.481-4.904,19.431-5.449,6.872-.538,9.761.621,13.12,6.503,2.647,4.634,3.208,7.942.859,13.195-3.012,6.737-7.6,13.442-11.859,19.421-5.462,7.668-10.346,12.373-19.481,15.003-9.632,2.773-18.971,3.849-28.9,3.901" fill="#e6c086" stroke-width="0"/>
    <path d="M100.63,94.961c-8.841.003-18.497,1.595-26.474-2.998-3.905-2.248-7.374-5.392-10.622-8.483-2.595-2.469-2.401-3.376-2.755-6.756-.473-4.515-.908-9.137-.558-13.715.257-3.359,1.453-3.724,4.292-5.264,3.25-1.764,8.571-1.624,12.264-.778,5.591,1.28,11.251,4.98,16.192,7.716,3.273,1.797,6.489,3.691,9.648,5.681,1.225.714,2.398,1.504,3.52,2.368,1.363,1.97.87,4.213.886,6.564.05,7.365.09,14.807-1.589,22.03-.527,2.268-2.175,5.347-1.968,7.809" fill="#e6c086" stroke-width="0"/>
    <path d="M110.551,168.661c-11.907,0-23.817-.067-35.724.004-7.566.046-16.086,1.212-23.468-1.102-6.152-1.928-13.726-6.731-18.15-11.562-2.725-2.975-3.526-8.051-2.64-11.945,1.408-6.188,8.809-7.247,14.008-8.041,7.477-1.142,17.248-1.985,24.694-.002,6.165,1.641,12.852,2.174,18.664,4.84,3.688,1.691,3.481,4.097,5.737,6.927,3.242,4.066,7.781,5.966,12.628,7.418" fill="#e6c086" stroke-width="0"/>
    <path d="M127.559,160.866c4.252,0,8.505.01,12.757.003,6.832-.012,11.919.533,18.435,3.265,7.241,3.037,14.219,6.619,21.517,9.534,3.04,1.214,6.351,2.975,9.572,3.635.469,3.743.03,7.775-1.457,11.268-.633,1.514-1.463,2.907-2.49,4.179-.331.472-.387.966-.167,1.483-1.032.845-2.132.67-3.608.804-5.426.493-10.797.707-16.296.708-12.722.002-22.594-3.301-33.245-10.245-6.23-4.062-12.101-8.587-17.996-13.104-1.61-1.234-4.807-2.567-4.03-5.152" fill="#e6c086" stroke-width="0"/>
  </g>
</svg>