<?xml version="1.0" encoding="UTF-8"?>
<svg xmlns="http://www.w3.org/2000/svg" viewBox="0 0 353.209 353.818">
  <g id="ILLUSTRATION">
    <path d="M182.013,1.523c6.728,12.949,10.979,27.136,12.759,42.561,1.776,15.425,3.809,29.93,6.094,43.513,9.013-10.155,18.216-22.024,27.612-35.61,9.394-13.583,21.328-23.613,35.801-30.088,2.41,1.779,3.618,3.303,3.618,4.57.762,3.809.919,7.111.476,9.902-.446,2.794-.856,5.522-1.237,8.188-3.428,11.807-7.207,23.456-11.331,34.944-4.127,11.491-8.602,21.932-13.425,31.326v1.523c22.471-10.283,44.561-18.534,66.27-24.756,2.029-.506,4.823-.762,8.379-.762,1.904,0,4.252-.19,7.046-.571,2.791-.381,4.951.509,6.475,2.666.762,3.047.19,5.778-1.714,8.188-1.904,2.413-3.618,4.761-5.142,7.046-8.379,9.902-17.71,18.853-27.993,26.851s-20.313,15.362-30.088,22.09v1.523c4.189.381,8.313.542,12.378.476,4.062-.062,7.998.286,11.807,1.047,1.904.762,3.934,1.238,6.094,1.428,2.157.19,4.189.476,6.094.857,12.188,1.904,21.962,3.937,29.326,6.094,4.189,1.523,8.313,3.017,12.378,4.475,4.062,1.461,7.236,3.713,9.521,6.76v5.332c-12.188,7.617-26.154,12.348-41.895,14.187-15.743,1.842-30.978,3.904-45.703,6.189,9.774,7.998,20.629,16.252,32.563,24.756,11.932,8.507,21.709,18.6,29.326,30.278,2.791,2.922,3.809,5.903,3.047,8.95-2.032,2.541-5.522,3.809-10.474,3.809-14.092-1.904-27.708-5.299-40.847-10.188-13.141-4.885-25.679-9.997-37.61-15.329,4.442,12.824,10.408,26.851,17.9,42.085,7.489,15.234,9.521,30.344,6.094,45.322-1.904,2.16-3.874,2.16-5.903,0-12.949-6.728-23.932-16.439-32.944-29.136-9.016-12.693-17.647-24.375-25.898-35.039-1.523,11.807-3.08,23.679-4.665,35.61-1.59,11.935-4.095,23.741-7.522,35.42-1.143,3.047-2.318,6.064-3.523,9.045-1.207,2.985-3.522,5.237-6.95,6.761-2.794,0-4.826-1.015-6.094-3.047-6.475-12.821-10.569-26.66-12.283-41.514s-3.904-28.945-6.57-42.275c-8.76,10.283-17.966,22.441-27.612,36.468-9.649,14.029-21.774,23.265-36.372,27.707-1.779-1.776-3.047-3.809-3.809-6.094.762-14.598,4.094-28.784,9.998-42.561,5.903-13.773,11.331-26.69,16.282-38.753-8.76,3.428-17.838,7.046-27.231,10.854-9.396,3.809-19.171,7.174-29.326,10.093-4.951,1.143-9.998,2.476-15.139,3.999s-10.125.952-14.949-1.714c-1.018,0-1.523-1.714-1.523-5.142,6.347-13.202,15.931-24.375,28.755-33.516,12.821-9.141,24.375-18.091,34.658-26.851-7.236-1.143-14.348-2.095-21.328-2.856-6.983-.762-14.22-2.095-21.709-3.999-3.809-.381-7.617-.887-11.426-1.523-3.809-.634-7.808-1.143-11.997-1.523-4.189-1.523-8.159-3.077-11.902-4.666-3.746-1.586-6.57-4.285-8.474-8.093-.509-2.029.253-4.062,2.285-6.094,3.047-2.666,6.98-4.791,11.807-6.379,4.823-1.586,9.712-2.952,14.663-4.094,17.392-3.3,37.006-5.838,58.843-7.617-7.998-6.728-16.252-13.235-24.756-19.519-8.507-6.284-16.886-13.616-25.137-21.995-3.047-4.062-5.999-7.552-8.855-10.474-2.856-2.919-4.666-6.475-5.427-10.664,0-3.428.762-5.142,2.285-5.142,3.681-1.143,7.266-1.333,10.759-.571,3.49.762,6.951,1.651,10.378,2.666,11.298,2.666,22.438,6.222,33.42,10.664,10.979,4.445,21.423,8.697,31.326,12.759-4.951-12.693-10.887-26.66-17.805-41.895-6.921-15.234-9.236-30.403-6.951-45.513,1.015-1.015,2.22-1.523,3.618-1.523,14.345,6.475,26.184,16.41,35.515,29.802,9.331,13.396,18.376,25.297,27.136,35.706,1.904-9.013,3.172-17.868,3.809-26.565.634-8.694,1.904-17.424,3.809-26.184,1.523-6.347,3.172-12.664,4.951-18.948,1.776-6.284,4.38-11.521,7.808-15.71l3.047-1.523c1.523,0,3.3.509,5.332,1.523Z" fill="#fec445" stroke-width="0"/>
  </g>
  <g id="TEXT">
    <g>
      <path d="M113.297,152.19h-3.938v-17.757c-.017-.84-.161-1.798-.434-2.875-.272-1.076-.786-1.973-1.542-2.69-.637-.472-1.355-.708-2.154-.708-.17,0-.55.036-1.141.106-.59.071-1.323.305-2.198.701s-1.495.713-1.86.949c-.484.302-.926.604-1.326.906-.994.736-1.797,1.397-2.409,1.982v19.385h-3.925v-20.815c0-.491-.036-.918-.109-1.281-.072-.364-.167-.673-.287-.928-.161-.34-.346-.606-.554-.8-.208-.194-.408-.333-.599-.418-.192-.085-.351-.137-.478-.156l-.204-.028v-.566h6.155v4.871c1.343-1.227,2.787-2.271,4.333-3.129,1.955-1.095,3.802-1.643,5.544-1.643,1.232,0,2.294.175,3.186.524,1.776.699,2.936,2.133,3.479,4.305,1.376-1.265,2.846-2.332,4.41-3.2,1.954-1.095,3.802-1.643,5.543-1.643,2.702,0,4.609.859,5.722,2.577.935,1.359,1.402,3.597,1.402,6.712v10.691c.017,1.539.387,2.365,1.109,2.478l.242.014c.238,0,.493-.057.765-.17s.516-.248.732-.403c.217-.156.338-.248.363-.276l.332.439c-2.073,1.888-3.729,2.832-4.97,2.832-.391,0-.739-.094-1.045-.283-.892-.576-1.372-1.713-1.44-3.413l-.013-.142v-.354l-.013-.099v-13.48c-.017-.84-.161-1.796-.433-2.867-.272-1.072-.786-1.966-1.542-2.684-.637-.472-1.355-.708-2.154-.708-.17,0-.55.035-1.141.106-.59.07-1.321.304-2.192.701-.871.396-1.489.713-1.854.949-.493.302-.938.604-1.338.906-.96.708-1.742,1.35-2.345,1.926.212,1.067.319,2.355.319,3.866v15.59Z" fill="#fff" stroke-width="0"/>
      <path d="M139.461,152.19c-.247,0-.497-.019-.752-.057-1.011-.179-1.907-.618-2.689-1.317s-1.381-1.581-1.797-2.648c-.306-.774-.459-1.534-.459-2.28,0-.387.043-.77.127-1.147.314-1.255,1.002-2.341,2.065-3.257,1.062-.916,2.281-1.678,3.657-2.287,1.376-.608,2.693-1.085,3.951-1.43,1.257-.345,2.243-.579,2.957-.701v-2.846c0-1.699-.231-3.033-.694-4-.463-.967-1.077-1.64-1.841-2.018-.612-.292-1.283-.439-2.014-.439-.187,0-.378.009-.574.028-.688.076-1.289.42-1.803,1.034-.514.614-.943,1.312-1.287,2.096-.344.784-.603,1.473-.778,2.067-.174.595-.261.911-.261.949l-2.218-1.43c.586-1.595,1.517-2.86,2.791-3.795,1.445-1.048,3.042-1.572,4.792-1.572,1.351,0,2.646.373,3.887,1.119,1.104.68,2.005,1.583,2.702,2.712.696,1.128,1.104,2.381,1.223,3.759v12.518c0,.651.064,1.159.191,1.522.127.364.293.619.497.765.204.146.42.22.65.22.289,0,.573-.066.854-.198.281-.132.516-.267.708-.403.191-.137.299-.22.325-.248l.318.425c-.85.784-1.68,1.439-2.492,1.968-.811.529-1.633.821-2.466.878-.833-.028-1.44-.392-1.822-1.09s-.599-1.468-.65-2.308c-2.345,1.397-3.535,2.115-3.568,2.152h-.039l-.905.538c-.824.481-1.687.722-2.587.722ZM142.94,149.358c.408,0,.933-.087,1.574-.262.642-.175,1.311-.494,2.007-.956v-10.493c-.747.123-1.975.434-3.683.935-.553.208-1.207.529-1.963.963s-1.436.989-2.039,1.664c-.604.675-.956,1.475-1.058,2.4l-.013.34c0,.85.327,1.798.981,2.846.833,1.218,1.716,1.987,2.651,2.308.527.17,1.041.255,1.542.255Z" fill="#fff" stroke-width="0"/>
      <path d="M158.781,152.205h-3.938v-20.83c0-1.416-.311-2.417-.931-3.002-.356-.321-.722-.51-1.096-.566l-.191-.028v-.566h6.156v14.217c.195-1.124.458-2.336.79-3.639.595-2.332,1.295-4.295,2.103-5.891,1.598-3.115,3.505-4.673,5.722-4.673,1.172,0,2.417.444,3.734,1.331l-1.784,3.526-.612-.326c-1.104-.585-2.248-.878-3.428-.878-.06,0-.289.007-.688.021-.399.015-.93.246-1.593.694-.663.448-1.219,1.21-1.669,2.287-.535,1.388-.969,2.742-1.3,4.064-.62,2.483-1.045,4.781-1.274,6.896v7.363Z" fill="#fff" stroke-width="0"/>
      <path d="M167.664,164.255c-.339,0-.722-.021-1.147-.063-.425-.043-.658-.073-.701-.092l.535-3.37.433.467c.281.312.663.651,1.147,1.02.484.368,1.024.656,1.619.864.323.113.65.17.981.17.289,0,.582-.042.879-.127.722-.227,1.295-.887,1.72-1.982.654-1.671,1.083-3.8,1.287-6.386.06-.784.09-1.241.09-1.374v-22.019c0-.491-.036-.918-.108-1.282-.072-.363-.168-.672-.287-.927-.161-.34-.344-.606-.547-.8-.204-.193-.404-.333-.599-.417-.196-.085-.357-.137-.484-.156l-.204-.028v-.566h6.155l.013,25.049c-.068,4.239-1.211,7.387-3.428,9.445-.17.151-.34.292-.51.425-1.588,1.218-3.424,1.917-5.505,2.096-.493.038-.939.057-1.338.057ZM176.483,124.167c-.519,0-.963-.203-1.332-.609-.37-.406-.555-.897-.555-1.473s.185-1.067.555-1.473c.369-.406.813-.609,1.332-.609.51,0,.949.203,1.318.609s.555.897.555,1.473-.186,1.067-.555,1.473-.809.609-1.318.609Z" fill="#fff" stroke-width="0"/>
      <path d="M191.024,152.205c-1.513,0-2.953-.314-4.32-.942-1.368-.627-2.59-1.539-3.664-2.732-1.075-1.194-1.897-2.554-2.466-4.078-.569-1.525-.854-3.123-.854-4.793,0-1.68.285-3.28.854-4.8.568-1.52,1.391-2.877,2.466-4.071,1.074-1.194,2.296-2.107,3.664-2.74,1.367-.632,2.808-.949,4.32-.949s2.952.316,4.32.949c1.367.632,2.589,1.546,3.664,2.74,1.074,1.194,1.895,2.551,2.459,4.071.565,1.52.848,3.12.848,4.8,0,1.671-.282,3.269-.848,4.793-.564,1.524-1.385,2.884-2.459,4.078-1.075,1.194-2.297,2.105-3.664,2.732-1.368.628-2.809.942-4.32.942ZM191.431,151.638c1.198-.151,2.275-.772,3.23-1.862.956-1.091,1.717-2.521,2.282-4.291.564-1.77.847-3.722.847-5.855,0-2.039-.259-3.913-.777-5.622-.518-1.708-1.221-3.118-2.108-4.227-.889-1.109-1.894-1.801-3.015-2.075-.28-.028-.569-.042-.866-.042-.307,0-.604.014-.893.042h-.013c-1.113.274-2.111.965-2.995,2.075-.884,1.109-1.587,2.518-2.108,4.227-.523,1.708-.784,3.583-.784,5.622,0,2.124.285,4.071.854,5.841.569,1.77,1.33,3.2,2.281,4.29.951,1.091,2.022,1.711,3.212,1.862h.013c.051.009.195.014.434.014h.407Z" fill="#fff" stroke-width="0"/>
      <path d="M206.482,152.19c-.391,0-.739-.094-1.045-.283-.518-.34-.882-.838-1.089-1.494-.209-.656-.325-1.295-.352-1.918l-.013-.496v-28.773c0-1.293-.263-2.242-.79-2.846-.374-.425-.777-.666-1.21-.722l-.229-.028v-.566h6.155v32.214c.017,1.539.391,2.365,1.121,2.478.077.009.157.014.242.014.229,0,.482-.057.759-.17.275-.113.521-.248.739-.404.216-.155.333-.248.35-.276h.013l.319.439c-2.064,1.888-3.722,2.832-4.971,2.832Z" fill="#fff" stroke-width="0"/>
      <path d="M221.38,152.261c-1.504,0-2.942-.316-4.314-.949s-2.596-1.546-3.67-2.74c-1.075-1.194-1.895-2.551-2.46-4.071-.564-1.52-.848-3.12-.848-4.8,0-1.671.283-3.269.848-4.793.565-1.525,1.385-2.882,2.46-4.071,1.074-1.189,2.298-2.101,3.67-2.733s2.811-.949,4.314-.949c1.648,0,3.216.377,4.702,1.133l.638.34c1.929,1.17,3.288,2.62,4.078,4.347.568,1.274.857,2.455.866,3.54v.566h-16.911c-.103.84-.153,1.708-.153,2.605,0,2.124.282,4.071.848,5.841.564,1.77,1.323,3.2,2.274,4.29.952,1.091,2.026,1.711,3.225,1.862.051.009.195.014.434.014,1.172,0,2.256-.486,3.249-1.458.858-.84,1.581-1.949,2.167-3.328l3.556.439c-.298.434-.625.845-.981,1.232-1.079,1.189-2.303,2.101-3.67,2.733-1.368.632-2.809.949-4.32.949ZM227.14,136.515c.119-.472.179-.939.179-1.402,0-.321-.049-.748-.146-1.281-.098-.534-.278-1.098-.542-1.692-.263-.595-.497-1.048-.7-1.359-1.02-1.652-2.243-2.657-3.671-3.016-.289-.028-.582-.042-.879-.042s-.595.014-.893.042c-1.385.349-2.578,1.31-3.581,2.881-1.002,1.572-1.69,3.528-2.064,5.87h12.298Z" fill="#fff" stroke-width="0"/>
      <path d="M235.947,152.19c-.391,0-.739-.094-1.045-.283-.519-.34-.882-.838-1.09-1.494-.208-.656-.325-1.295-.351-1.918l-.013-.595v-16.497c0-.491-.034-.916-.102-1.274-.162-.784-.442-1.364-.842-1.742-.349-.312-.709-.496-1.083-.552l-.204-.028v-.566h6.155v20.037c.018,1.539.391,2.365,1.122,2.478.076.009.157.014.242.014.229,0,.481-.057.758-.17s.522-.248.739-.404c.217-.155.333-.248.351-.276h.013l.319.439c-2.065,1.888-3.722,2.832-4.971,2.832ZM235.029,124.167c-.518,0-.96-.203-1.325-.609s-.548-.897-.548-1.473.183-1.067.548-1.473.808-.609,1.325-.609.96.203,1.325.609.549.897.549,1.473-.184,1.067-.549,1.473-.807.609-1.325.609Z" fill="#fff" stroke-width="0"/>
      <path d="M245.708,152.19h-3.926v-20.815c0-.491-.036-.918-.107-1.281-.072-.364-.168-.673-.287-.928-.161-.34-.346-.606-.555-.8-.208-.194-.407-.333-.599-.418s-.351-.137-.478-.156l-.204-.028v-.566h6.155v4.843c1.309-1.189,2.752-2.232,4.333-3.129,1.929-1.085,3.776-1.628,5.544-1.628,1.232,0,2.294.17,3.186.51,1.08.425,1.924,1.114,2.536,2.067.935,1.359,1.402,3.597,1.402,6.712v10.691c.017,1.539.386,2.365,1.108,2.478l.204.014c.246,0,.51-.059.79-.177.28-.118.529-.255.745-.411.218-.155.338-.243.364-.262l.33.425c-2.072,1.897-3.729,2.846-4.969,2.846-.392,0-.74-.094-1.046-.283-.892-.595-1.372-1.737-1.44-3.427l-.012-.142v-.34l-.014-.099v-13.48c-.017-.84-.161-1.798-.433-2.875s-.786-1.968-1.542-2.676c-.638-.481-1.359-.722-2.167-.722-.161,0-.537.036-1.128.106-.591.071-1.323.307-2.198.708-.875.401-1.495.72-1.86.956-.484.302-.931.6-1.339.892-.985.746-1.784,1.407-2.396,1.982v19.414Z" fill="#fff" stroke-width="0"/>
    </g>
    <path d="M171.717,199.817c-1.07,0-2.113-.186-3.128-.559-1.016-.373-1.931-.918-2.747-1.636-1.087-.963-1.916-2.134-2.485-3.512-.501-1.218-.752-2.479-.752-3.781l.013-.524c.127-1.945.76-3.658,1.899-5.14,1.164-1.52,3.037-2.79,5.62-3.809-.816-1.114-1.534-2.308-2.154-3.583-.612-1.378-.917-2.705-.917-3.979,0-.274.013-.547.038-.821.332-2.256,1.44-3.984,3.326-5.183,1.096-.614,2.243-.92,3.44-.92.748,0,1.517.118,2.308.354,1.35.406,2.403,1.185,3.16,2.336.534.878.803,1.883.803,3.016-.009,1.133-.285,2.228-.829,3.285-.874,1.643-2.353,3.007-4.435,4.092l-.573.283c.629.954,1.355,1.973,2.18,3.059,1.962,2.596,2.969,3.922,3.02,3.979.969,1.265,1.853,2.407,2.651,3.427l.063.085c.018-.038.034-.071.051-.099.018-.028.029-.057.038-.085.392-.774.846-1.55,1.364-2.33.518-.778,1.13-1.475,1.835-2.088,1.197-.972,2.404-1.458,3.62-1.458.44,0,.883.066,1.325.198l-.982,3.724-.611-.312c-.408-.198-.909-.373-1.504-.524-.348-.085-.701-.127-1.058-.127-.246,0-.584.036-1.013.106-.429.071-.86.395-1.294.97-.468.717-.879,1.425-1.235,2.124l-.18.354.561.708c.068.094.442.566,1.122,1.416l.013.028c1.376,1.699,2.515,2.959,3.415,3.781.901.82,1.704,1.316,2.409,1.486.263.066.544.1.841.1.416,0,.863-.062,1.338-.185l.269.468c-1.097.773-2.35,1.16-3.76,1.16-2.804,0-5.446-1.378-7.927-4.135l-.587-.665-.178.255c-1.81,2.436-4.041,3.937-6.691,4.503-.561.104-1.121.155-1.682.155ZM172.495,199.224c.28-.029.553-.071.816-.128,2.523-.538,4.652-1.968,6.385-4.29l.216-.312c-.408-.501-.804-1.001-1.185-1.502l-.65-.85-1.925-2.704-5.684-8.1c-.985.727-1.782,1.855-2.389,3.384-.608,1.529-.912,3.257-.912,5.183,0,1.7.238,3.25.714,4.652.476,1.401,1.115,2.521,1.918,3.355.803.836,1.701,1.272,2.695,1.311ZM173.986,179.271c.161-.076.316-.151.465-.227s.341-.241.573-.496c.233-.255.472-.644.714-1.168.242-.523.448-1.229.618-2.117s.255-2.006.255-3.356c0-.972-.098-1.77-.293-2.393-.349-1.095-.876-1.836-1.58-2.223-.442-.236-.812-.354-1.109-.354h-.025c-.706.028-1.385.17-2.039.425-.221.094-.484.347-.79.757-.306.411-.48,1.055-.522,1.933l-.013.227c0,2.124,1.249,5.121,3.747,8.992Z" fill="#fff" stroke-width="0"/>
    <g>
      <path d="M139.966,230.315h-3.938l-4.168-11.908-4.167,11.88h-3.938l-7.392-21.112c-.382-.812-.777-1.445-1.185-1.898s-.787-.783-1.135-.99c-.348-.208-.633-.336-.853-.383l-.333-.07v-.566h6.36l8.348,23.831,4.014-11.483-2.943-8.426c-.391-.803-.789-1.433-1.192-1.891s-.782-.788-1.135-.991-.639-.328-.86-.375l-.318-.071v-.566h6.36l2.205,6.302,2.204-6.329h.548l-2.485,7.107,5.862,16.752,8.348-23.832h.548l-8.755,25.021Z" fill="#fff" stroke-width="0"/>
      <path d="M158.177,230.329c-1.512,0-2.952-.313-4.32-.941s-2.589-1.538-3.664-2.732c-1.075-1.194-1.897-2.554-2.466-4.078-.569-1.524-.854-3.123-.854-4.793,0-1.681.285-3.281.854-4.801.569-1.52,1.391-2.877,2.466-4.071,1.075-1.194,2.296-2.107,3.664-2.739,1.368-.633,2.808-.949,4.32-.949s2.953.316,4.321.949c1.367.632,2.589,1.545,3.664,2.739,1.075,1.194,1.894,2.552,2.459,4.071.565,1.52.848,3.12.848,4.801,0,1.67-.283,3.269-.848,4.793-.565,1.524-1.384,2.884-2.459,4.078-1.075,1.194-2.297,2.104-3.664,2.732-1.368.628-2.808.941-4.321.941ZM158.585,229.763c1.199-.15,2.275-.771,3.231-1.861.956-1.091,1.716-2.521,2.282-4.291.565-1.77.847-3.722.847-5.855,0-2.039-.259-3.912-.777-5.621-.519-1.709-1.222-3.117-2.109-4.227s-1.894-1.801-3.015-2.074c-.28-.029-.569-.043-.867-.043-.306,0-.603.014-.891.043h-.013c-1.113.273-2.111.965-2.995,2.074-.884,1.109-1.587,2.518-2.109,4.227-.523,1.709-.784,3.582-.784,5.621,0,2.125.285,4.071.854,5.842.569,1.77,1.329,3.2,2.281,4.29.952,1.091,2.022,1.711,3.211,1.862h.013c.051.01.195.014.433.014h.408Z" fill="#fff" stroke-width="0"/>
      <path d="M190.624,230.315c-.392,0-.739-.095-1.045-.283-.519-.34-.882-.838-1.09-1.494-.209-.656-.325-1.295-.35-1.918,0-.123-.005-.223-.014-.298v-.751l-.013-.084c-.569.519-1.271,1.085-2.103,1.699-.646.48-1.381.953-2.204,1.416-1.964,1.095-3.815,1.643-5.557,1.643-2.702,0-4.61-.859-5.723-2.578-.926-1.359-1.39-3.601-1.39-6.726v-11.441c0-.906-.131-1.643-.395-2.209-.229-.472-.489-.805-.778-.998-.288-.193-.59-.319-.904-.376l-.153-.027v-.566h6.154v17.785c.018.85.162,1.81.435,2.881.271,1.071.786,1.961,1.542,2.67.628.48,1.342.722,2.141.722.17,0,.546-.033,1.128-.099.581-.066,1.309-.296,2.18-.688s1.493-.71,1.866-.955c.501-.312.96-.619,1.377-.921.977-.736,1.771-1.393,2.383-1.968v-15.279c0-.916-.132-1.647-.396-2.195-.161-.349-.343-.623-.547-.82-.357-.331-.719-.52-1.084-.566l-.204-.015v-.566h6.155v.015h.026v20.404c.033.765.161,1.308.382,1.629.237.358.539.537.905.537.271,0,.55-.061.835-.184.284-.123.53-.257.738-.403.209-.146.321-.233.338-.263h.014l.317.439c-1.359,1.236-2.54,2.072-3.543,2.506h-.013c-.51.218-.98.326-1.414.326Z" fill="#fff" stroke-width="0"/>
      <path d="M199.852,230.315c-.392,0-.74-.095-1.046-.283-.518-.34-.881-.838-1.089-1.494s-.325-1.295-.351-1.918l-.013-.736v-19.98h-4.499v-.566c3.187-.085,5.506-1.293,6.958-3.625.562-.906.945-1.711,1.153-2.414s.313-1.103.313-1.197v7.236h6.219v.566h-6.219v19.513c.017,1.558.39,2.379,1.121,2.464l.241.014c.238,0,.493-.057.765-.17.272-.113.517-.247.733-.403.216-.155.333-.247.351-.276h.013l.318.439c-2.064,1.888-3.722,2.832-4.97,2.832Z" fill="#fff" stroke-width="0"/>
      <path d="M216.342,230.386c-1.504,0-2.942-.315-4.313-.948-1.372-.633-2.596-1.546-3.671-2.74s-1.895-2.551-2.46-4.071c-.565-1.52-.848-3.119-.848-4.8,0-1.671.282-3.269.848-4.793s1.385-2.882,2.46-4.071,2.299-2.101,3.671-2.732c1.371-.633,2.81-.949,4.313-.949,1.647,0,3.216.378,4.702,1.133l.638.34c1.929,1.171,3.287,2.619,4.078,4.348.568,1.273.858,2.454.867,3.539v.566h-16.912c-.103.841-.153,1.709-.153,2.605,0,2.125.282,4.071.848,5.842.564,1.77,1.323,3.2,2.274,4.29.952,1.091,2.026,1.711,3.225,1.862.051.01.195.014.434.014,1.172,0,2.255-.485,3.25-1.458.857-.84,1.58-1.949,2.166-3.327l3.556.438c-.297.435-.624.845-.98,1.231-1.08,1.189-2.303,2.101-3.671,2.733s-2.808.948-4.32.948ZM222.102,214.64c.119-.472.179-.938.179-1.401,0-.321-.049-.748-.146-1.281s-.278-1.098-.542-1.692-.497-1.048-.701-1.359c-1.02-1.652-2.243-2.657-3.67-3.016-.288-.029-.582-.043-.879-.043s-.596.014-.893.043c-1.385.349-2.578,1.31-3.581,2.881-1.002,1.572-1.69,3.528-2.063,5.869h12.297Z" fill="#fff" stroke-width="0"/>
      <path d="M232.336,230.329h-3.938v-20.829c0-1.416-.311-2.417-.93-3.002-.357-.321-.723-.51-1.097-.566l-.191-.028v-.566h6.155v14.217c.196-1.123.459-2.336.791-3.639.594-2.332,1.296-4.296,2.103-5.891,1.597-3.115,3.505-4.674,5.722-4.674,1.172,0,2.418.444,3.734,1.332l-1.784,3.525-.612-.326c-1.104-.585-2.247-.877-3.428-.877-.06,0-.289.007-.688.021-.4.015-.931.246-1.594.694s-1.219,1.211-1.669,2.287c-.536,1.387-.969,2.742-1.301,4.063-.62,2.482-1.044,4.781-1.274,6.896v7.363Z" fill="#fff" stroke-width="0"/>
    </g>
  </g>
</svg>